<?xml version="1.0" encoding="utf-8"?>
<!-- Generator: Adobe Illustrator 26.0.2, SVG Export Plug-In . SVG Version: 6.00 Build 0)  -->
<svg version="1.1" id="Layer_1" xmlns="http://www.w3.org/2000/svg" xmlns:xlink="http://www.w3.org/1999/xlink" x="0px" y="0px"
	 viewBox="0 0 185.45 221.64" style="enable-background:new 0 0 185.45 221.64;" xml:space="preserve">
<style type="text/css">
	.st0{fill:#FFFFFF;}
</style>
<path class="st0" d="M185.45,0c0,50.01,0,86.03,0,136.04c0,29.84-7.39,36.87-13.05,44.76c-30.57,42.6-90.78,53.68-134.46,24.64
	c-24.86-16.53-38.53-38.76-37.92-69.72C0.87,92.87,0.23,43.3,0.24,0.43c0,0,0.02-0.12,6.81-0.13c57.16-0.01,114.31,0,171.47-0.02
	C180.83,0.29,183.14,0.1,185.45,0z M145.67,118.17c-9.15-7.59-19.3-11.9-31.65-9.78c1.14-0.92,2.34-1.5,3.51-1.46
	c10.55,0.37,20.3-2.36,29.47-7.43c18.94-10.47,31.59-34.07,29.06-53.87c-0.41-3.2-1.19-4.69-4.92-4.12
	c-14.72,2.23-29.48,4.21-44.24,6.21c-6.18,0.83-12.02,2.13-14.96,9.25c-3.69-9.32-9.66-15.14-18.81-17
	c-3.69-0.75-7.57-0.76-11.37-0.82c-7.51-0.12-15.02-0.03-23.11-0.03c0.83,3.39,1.31,5.33,1.68,6.84c-3.41,0-6.66-0.41-9.76,0.11
	c-3.51,0.59-6.89,2.03-10.44,3.13c1.39,6.63,6.26,9.06,13.61,5.98c8.63-3.61,8.87-3.67,11.91,4.56c1.23,3.34,3.19,4.14,6.36,4.02
	c4.35-0.17,8.72-0.04,13.07-0.04C65.9,67.54,54.32,78.95,50.18,98.73c-4.06-11.47-4.07-11.46-14.2-17.34
	c-1.72-1-3.27-2.31-5.06-3.12c-2.49-1.13-3.23-2.6-2.76-5.42c1.83-10.79-1.23-22.5,7.28-32.52c-4.06-0.3-7.03-0.52-9.99-0.74
	c-0.07-0.44-0.14-0.87-0.22-1.31c1.89-0.71,3.74-1.84,5.69-2.04c3.45-0.34,6.96,0.04,10.43-0.16c9.15-0.52,14.86-9.7,11.72-18.19
	c-3.32,1.7-6.71,3.43-10.6,5.42c-0.32-3.41-0.49-5.25-0.53-5.71c-4.64,0.58-8.61,1.33-12.6,1.53c-6.68,0.34-11.74,6.59-10.72,14.03
	c1.25-0.58,2.39-1.11,3.32-1.55c0.48,6.79-3.08,9.51-9.78,8.63c1.98,3.82,4.43,6.68,4.91,9.84c1.14,7.5,1.26,15.16,1.96,22.73
	c0.28,3.05-0.63,5.13-2.9,7.32c-5.89,5.69-5.11,13.01,1.31,17.92c1.57,1.2,2.48,3.27,4.06,4.42c0.95,0.69,2.63,0.39,3.98,0.53
	c0.11-3.38,0.22-6.76,0.33-10.13c-2.16,0.1-4.31,0.2-8.14,0.38c2.04-1.75,3.18-3.35,4.71-3.94c7.98-3.09,6.01,5.75,9.67,8.38
	c1.17-0.81,2.33-1.62,3.72-2.58c4.58,5.62,9.33,10.94,13.47,16.69c4.14,5.76,7.67,11.96,12.01,18.81c2.78-3.85,4.67-6.46,6.56-9.08
	c-2.05,8.72-4.7,17.15-7.38,25.58c-0.39,1.21-0.91,2.38-1.38,3.59c-10.19-4.78-14.46-4.68-19.07,0.29
	c-3.46,3.73-4.23,9.61-1.81,13.82c2.48,4.33,6.7,6.49,10.72,5.5c-2.89-8.75-2.91-8.81-1.53-9.44c6.38-2.94,9.25,0.79,10.83,7.36
	c1.98-2.4,3.18-3.71,4.23-5.13c5.61-7.59,11.34-15.1,16.69-22.86c2.41-3.5,5.08-4.9,9.67-3.34c0,1.6-0.02,3.38,0,5.16
	c0.23,17.23,14.86,31.59,32.38,31.79c17.59,0.21,32.5-14.34,33.06-31.69c0.3-9.37-3.53-16.93-8.68-24.17
	c1.77,0.28,3.87,1.33,5.27,0.73c13.3-5.68,21.85-15.61,25.52-29.63c0.28-1.08,0.04-2.3,0.04-3.45
	c-7.76,19.11-24.47,20.37-41.14,21.03C138.96,110.82,142.32,114.49,145.67,118.17z M94.91,21.29c-7.43-1.07-10.42,1.51-9.21,6.82
	c0.24,1.07-0.17,2.3-0.42,3.42c-0.02,0.08-1.71-0.02-1.73-0.15c-0.15-1.16,0.01-2.36-0.13-3.53c-0.21-1.78-0.07-4.67-0.98-5.07
	c-1.83-0.81-4.51-0.83-6.34-0.04c-0.9,0.39-0.75,3.32-0.96,5.12c-0.14,1.17-0.04,2.36-0.2,3.53c-0.01,0.09-1.72,0.12-1.74,0.01
	c-0.2-1.15-0.06-2.37-0.34-3.49c-0.53-2.09-0.71-4.81-2.11-5.97c-1.42-1.18-4.14-0.8-7.17-1.23c2.17,5.76,3.46,10.26,5.61,14.3
	c0.8,1.5,3.72,2.87,5.48,2.67c4.96-0.58,11.11,2.99,14.67-2.33C92,31.36,93.01,26.29,94.91,21.29z"/>
<path class="st0" d="M100.1,134.96c6.05-0.74,12.08-1.71,18.15-2.16c4.5-0.33,8.27,1.73,9.87,6.03c1.52,4.11,0.96,8.26-2.81,11.2
	c-3.66,2.85-7.72,3.09-11.53,0.51c-3.73-2.53-5.3-6.2-4.04-10.77c0.21-0.76,0.39-1.52,0.75-2.9c-3.7-0.44-7.08-0.85-10.47-1.26
	C100.05,135.41,100.08,135.19,100.1,134.96z"/>
<path class="st0" d="M113.37,68.29c1.92,1.59,4.42,3.65,7.39,6.1c-4.41,6.29-10.73,9.66-17.42,12.32
	C106.73,80.48,110.08,74.32,113.37,68.29z"/>
<path class="st0" d="M65.31,50.83c5.06,0,10.13-0.2,15.16,0.16c1.11,0.08,2.08,2.13,3.12,3.27c-1.19,0.76-2.56,2.36-3.52,2.14
	c-5.06-1.15-10.02-2.75-15.02-4.2C65.13,51.74,65.22,51.28,65.31,50.83z"/>
<path class="st0" d="M103.31,104.22c-4.47-2.09-9.32-4.17-13.95-6.65c-1.24-0.67-1.98-2.49-2.58-3.94
	c-0.11-0.26,1.71-1.93,2.36-1.78c1.39,0.33,2.71,1.3,3.87,2.23c3.7,2.98,7.33,6.06,10.97,9.12c0.12,0.1,0.22,0.3,0.2,0.43
	C104.17,103.73,103.95,103.8,103.31,104.22z"/>
</svg>
